# xmcd
#
# Track frame offsets:
#	150
#	17063
#	50326
#	68731
#	110471
#	125870
#	144249
#	158922
#	177057
#	198908
#	219923
#
# Disc length: 3109 seconds
#
# Revision: 0
# Processed by: cddbd v1.4PL0 Copyright (c) Steve Scherf et al.
# Submitted via: dBpowerAMP V4.0
#
DISCID=940c230b
DTITLE=Denver Mandolin Orchestra - A Walk in the Park
DYEAR=2000
DGENRE=Bluegrass
TTITLE0=Meteor March, W M Rice
TTITLE1=Circo Equestre, Giuseppe Lucchesi
TTITLE2=Flaxen Hair Blues, Ely Karasik
TTITLE3=Grand Medley of Popular Airs, Wm. Foden, Arr.
TTITLE4=Nibtidi Mneen Al-Hikaya, Muhammad Abd al-Wahhab
TTITLE5=Cleopatra, Muhammad Abd al-Wahhab
TTITLE6=Longa Riyadh, Riyadh al Sumbati
TTITLE7=Jagtime Johnson's Ragtime March, F L Ryder
TTITLE8=Spanish Needles, Warren N Dean
TTITLE9=The Liberty Bell March, John Philip Sousa
TTITLE10=A Live Wire (non-insulated), Jas. H Johnstone
EXTD=
EXTT0=
EXTT1=
EXTT2=
EXTT3=
EXTT4=
EXTT5=
EXTT6=
EXTT7=
EXTT8=
EXTT9=
EXTT10=
PLAYORDER=
